<svg id="Livello_1" data-name="Livello 1" xmlns="http://www.w3.org/2000/svg" viewBox="0 0 1024 168"><defs><style>.cls-1,.cls-20{font-size:76.03px;font-family:FuturaPT-Medium, Futura PT;}.cls-1{fill:#fff;}.cls-2{letter-spacing:-0.02em;}.cls-3{letter-spacing:-0.01em;}.cls-4{letter-spacing:0em;}.cls-5{letter-spacing:-0.02em;}.cls-6{letter-spacing:-0.02em;}.cls-7{letter-spacing:0.01em;}.cls-8{letter-spacing:-0.01em;}.cls-9{letter-spacing:-0.04em;}.cls-10{letter-spacing:-0.1em;}.cls-11{letter-spacing:-0.01em;}.cls-12{letter-spacing:-0.01em;}.cls-13{letter-spacing:0em;}.cls-14{letter-spacing:-0.01em;}.cls-15{letter-spacing:-0.01em;}.cls-16{letter-spacing:-0.01em;}.cls-17{letter-spacing:-0.01em;}.cls-18{letter-spacing:-0.01em;}.cls-19{letter-spacing:0em;}.cls-21{fill:#fffe00;}.cls-22{fill:#9f00ff;}.cls-23{opacity:0.2;}.cls-24{opacity:0.15;}</style></defs><title>Tavola disegno 1</title><text class="cls-1" transform="translate(256 70.59) scale(1 1.01)"><tspan class="cls-2">C</tspan><tspan class="cls-3" x="45.74" y="0">a</tspan><tspan class="cls-4" x="84.91" y="0">r</tspan><tspan class="cls-5" x="109.8" y="0">l</tspan><tspan class="cls-6" x="125.53" y="0">o</tspan><tspan class="cls-7" x="164.59" y="0">t</tspan><tspan class="cls-8" x="183.77" y="0">t</tspan><tspan class="cls-9" x="201.33" y="0">a</tspan><tspan class="cls-10" x="238.85" y="0">’</tspan><tspan x="253.5" y="0">s </tspan><tspan x="0" y="65.49">E</tspan><tspan class="cls-11" x="38.01" y="65.49">x</tspan><tspan class="cls-3" x="74.92" y="65.49">p</tspan><tspan class="cls-12" x="114.08" y="65.49">e</tspan><tspan class="cls-13" x="149.7" y="65.49">r</tspan><tspan class="cls-14" x="174.6" y="65.49">i</tspan><tspan class="cls-15" x="190.35" y="65.49">m</tspan><tspan class="cls-16" x="242.62" y="65.49">e</tspan><tspan class="cls-17" x="278.28" y="65.49">n</tspan><tspan class="cls-18" x="314.07" y="65.49">t</tspan><tspan class="cls-3" x="331.63" y="65.49">a</tspan><tspan class="cls-19" x="370.79" y="65.49">l</tspan></text><text class="cls-20" transform="translate(643.67 136.74)"> </text><polygon class="cls-21" points="755.04 35.53 755.04 133.56 688.53 103.62 688.53 34.16 755.04 35.53"/><path d="M755.87,134.86l-68.17-30.7V33.3l68.17,1.41Zm-66.5-31.78,64.83,29.18V36.35L689.37,35Z"/><polygon class="cls-21" points="688.53 34.16 688.53 103.62 653.69 132.18 654.26 34.16 688.53 34.16"/><path d="M652.55,134.56,653.15,33h36.5v71.11Zm2.82-99.29-.55,94.54,32.6-26.72V35.27Z"/><polygon class="cls-22" points="751.95 134.13 654.83 134.13 688.53 105 751.95 134.13"/><path d="M755.52,134.91H652.73l35.67-30.83.46.21Zm-98.59-1.56h91.44l-59.7-27.43Z"/><g class="cls-23"><polygon points="688.53 34.16 687.96 103.62 653.69 132.18 654.26 34.16 688.53 34.16"/><path d="M652.55,134.58,653.15,33h36.51l-.58,71.11Zm2.82-99.31-.55,94.52,32-26.7.56-67.82Z"/></g><g class="cls-24"><polygon points="690.74 109.41 744.55 134.13 751.95 134.13 688.53 105 654.83 134.13 662.14 134.13 690.74 109.41"/><path d="M755.5,134.91H744.38l-.15-.07-53.36-24.52-28.44,24.59h-9.69l35.66-30.83Zm-10.78-1.56h3.68l-59.74-27.44-31.74,27.44h4.93l28.76-24.86Z"/></g><rect x="687.42" y="32.78" width="2.23" height="73.38"/><rect x="721.85" y="1.81" width="2.23" height="66.04" transform="matrix(0.02, -1, 1, 0.02, 673.09, 756.91)"/></svg>